<svg xmlns="http://www.w3.org/2000/svg" viewBox="0 0 100 100" width="100" height="100" role="img" aria-label="Claude">
  <g fill="#D97757">
    <!-- 4 puntas principales (N/S/E/O), rombo suave con punta redondeada -->
    <path d="M50 4 C56 30 58 42 50 50 C42 42 44 30 50 4 Z"/>
    <path d="M50 96 C44 70 42 58 50 50 C58 58 56 70 50 96 Z"/>
    <path d="M4 50 C30 44 42 42 50 50 C42 58 30 56 4 50 Z"/>
    <path d="M96 50 C70 56 58 58 50 50 C58 42 70 44 96 50 Z"/>
    <!-- 4 puntas diagonales, más cortas -->
    <path d="M20 20 C33 30 39 36 42.5 42.5 C36 39 30 33 20 20 Z"/>
    <path d="M80 20 C67 30 61 36 57.5 42.5 C64 39 70 33 80 20 Z"/>
    <path d="M20 80 C33 70 39 64 42.5 57.5 C36 61 30 67 20 80 Z"/>
    <path d="M80 80 C67 70 61 64 57.5 57.5 C64 61 70 67 80 80 Z"/>
    <!-- núcleo -->
    <circle cx="50" cy="50" r="6"/>
  </g>
</svg>
